<svg aria-hidden="true" style="position: absolute; width: 0; height: 0; overflow: hidden;" version="1.1" xmlns="http://www.w3.org/2000/svg" xmlns:xlink="http://www.w3.org/1999/xlink">
<defs>
<symbol id="icon-16" viewBox="0 0 47 32">
<path fill="#d41443" style="fill: var(--color1, #d41443)" d="M16.316 29.568c0 0.298-0.828 0.543-2.484 0.733-1.49 0.155-3.219 0.244-4.968 0.244h-0c-1.655 0-2.729-0.068-3.217-0.204-0.461-0.163-0.692-0.422-0.692-0.774v-17.594h-4.153c-0.461 0-0.692-0.991-0.692-2.973s0.233-3.775 0.692-5.376c0.137-0.516 1.575-0.991 4.317-1.425 2.743-0.435 4.847-0.652 6.313-0.652s2.444 0.054 2.932 0.163c0.489 0.109 0.855 0.244 1.1 0.407 0.244 0.135 0.436 0.298 0.57 0.489 0.191 0.298 0.285 0.583 0.285 0.855v26.106zM32.164 12.748c0.244-0.218 0.896-0.502 1.955-0.855s2.255-0.529 3.584-0.529c1.357 0 2.497 0.204 3.421 0.611 0.95 0.38 1.683 0.868 2.199 1.466 0.543 0.596 0.964 1.344 1.263 2.24 0.464 1.336 0.733 2.877 0.733 4.48v0c0 1.52-0.068 2.675-0.204 3.462-0.109 0.761-0.407 1.615-0.896 2.566-0.467 0.957-1.113 1.76-1.901 2.392l-0.013 0.010c-0.787 0.652-1.927 1.207-3.421 1.67-1.466 0.435-3.19 0.652-5.172 0.652-4.262 0-7.481-1.168-9.652-3.503-2.172-2.362-3.258-6.163-3.258-11.404 0-5.267 1.018-9.055 3.055-11.363 2.035-2.335 5.132-3.503 9.286-3.503 2.851 0 5.322 0.218 7.412 0.652 2.118 0.407 3.177 0.896 3.177 1.466 0 0.705-0.272 1.942-0.815 3.706-0.516 1.764-0.991 2.647-1.425 2.647-0.135 0-0.543-0.068-1.222-0.204-1.847-0.38-3.53-0.57-5.050-0.57s-2.497 0.38-2.932 1.14c-0.435 0.733-0.652 1.818-0.652 3.258 0.109-0.135 0.285-0.298 0.529-0.489zM33.060 16.413c-0.787 0-1.181 1.466-1.181 4.399 0 2.905 0.393 4.358 1.181 4.358 0.842 0 1.263-1.453 1.263-4.358 0-2.932-0.422-4.399-1.263-4.399z"></path>
</symbol>
<symbol id="icon-23" viewBox="0 0 51 32">
<path fill="#d41443" style="fill: var(--color1, #d41443)" d="M3.476 12.177c-0.759 0-1.425-0.896-1.996-2.688-0.543-1.792-0.815-3.516-0.815-5.172 0-0.38 0.422-0.8 1.263-1.263 0.842-0.489 2.118-0.924 3.828-1.303s3.571-0.57 5.58-0.57c7.793 0 11.689 2.729 11.689 8.186 0 0.017 0 0.037 0 0.057 0 1.536-0.361 2.988-1.003 4.275l0.025-0.056c-0.652 1.331-1.37 2.403-2.159 3.217-0.82 0.809-1.727 1.535-2.703 2.16l-0.066 0.040c-1.222 0.761-2.388 1.357-3.503 1.792h8.145c0.163 0 0.34 0.081 0.529 0.244 0.189 0.135 0.393 0.57 0.611 1.303 0.218 0.705 0.326 1.601 0.326 2.688 0 1.059-0.067 1.955-0.204 2.688-0.135 0.705-0.298 1.222-0.489 1.548-0.407 0.733-0.774 1.127-1.1 1.181l-0.204 0.041h-17.839c-1.711 0-2.566-2.675-2.566-8.023 0-0.596 1.766-2.24 5.295-4.928 1.358-1.001 2.556-2.057 3.656-3.207l0.010-0.010c1.114-1.168 1.67-2.118 1.67-2.851 0-0.815-0.611-1.222-1.833-1.222s-2.511 0.313-3.869 0.937c-1.329 0.625-2.090 0.937-2.281 0.937zM49.306 8.797c0 2.742-1.087 4.793-3.258 6.15 0.298 0.135 0.678 0.461 1.139 0.977 0.49 0.516 0.896 1.033 1.222 1.548 0.844 1.331 1.264 2.905 1.264 4.724 0 2.986-1.073 5.185-3.217 6.598-2.145 1.411-5.091 2.118-8.838 2.118-1.847 0-3.599-0.15-5.254-0.448-1.629-0.326-2.88-0.679-3.747-1.059-0.87-0.407-1.303-0.774-1.303-1.1 0-1.494 0.163-2.81 0.487-3.951 0.326-1.14 0.694-1.942 1.1-2.403 0.407-0.489 0.801-0.733 1.183-0.733 0.108 0 0.828 0.244 2.159 0.733 1.329 0.489 2.633 0.733 3.91 0.733 1.303 0 1.955-0.407 1.955-1.222 0-1.113-1.372-1.711-4.115-1.792-1.085-0.028-1.683-0.054-1.792-0.081-0.57-0.189-0.855-1.385-0.855-3.584s0.287-3.408 0.855-3.625c0.109-0.054 0.707-0.081 1.792-0.081 2.743-0.054 4.115-0.611 4.115-1.67 0-0.815-0.598-1.222-1.793-1.222-1.167 0-2.47 0.285-3.91 0.855-1.439 0.57-2.225 0.855-2.361 0.855-0.625 0-1.196-0.909-1.712-2.729-0.515-1.818-0.774-3.108-0.774-3.869 0-0.705 0.788-1.425 2.364-2.159 1.737-0.787 4.289-1.181 7.657-1.181 7.818 0 11.729 2.538 11.729 7.616z"></path>
</symbol>
<symbol id="icon-arrow" viewBox="0 0 32 32">
<path d="M19.414 27.414l10-10c0.781-0.781 0.781-2.047 0-2.828l-10-10c-0.781-0.781-2.047-0.781-2.828 0s-0.781 2.047 0 2.828l6.586 6.586h-19.172c-1.105 0-2 0.895-2 2s0.895 2 2 2h19.172l-6.586 6.586c-0.39 0.39-0.586 0.902-0.586 1.414s0.195 1.024 0.586 1.414c0.781 0.781 2.047 0.781 2.828 0z"></path>
</symbol>
<symbol id="icon-Ellipse" viewBox="0 0 32 32">
<path fill="#fff" style="fill: var(--color2, #fff)" d="M0 16c0 8.837 7.163 16 16 16s16-7.163 16-16c0-8.837-7.163-16-16-16s-16 7.163-16 16z"></path>
</symbol>
</defs>
</svg>
