<svg  fill="none" xmlns="http://www.w3.org/2000/svg"><path d="M18.857 32.896c0 .337-.935.613-2.806.828-1.87.184-3.741.276-5.612.276-1.87 0-3.082-.077-3.634-.23-.521-.184-.782-.475-.782-.874V13.024H1.331c-.521 0-.782-1.12-.782-3.358 0-2.239.26-4.263.782-6.072.154-.583 1.779-1.12 4.876-1.61 3.098-.49 5.474-.736 7.13-.736 1.656 0 2.76.061 3.312.184s.966.276 1.242.46c.276.153.49.337.644.552.215.337.322.66.322.966v29.486Zm17.9-18.998c.276-.245 1.012-.567 2.208-.966 1.196-.399 2.545-.598 4.048-.598 1.533 0 2.821.23 3.864.69 1.073.43 1.901.981 2.484 1.656.613.675 1.089 1.518 1.426 2.53.552 1.656.828 3.343.828 5.06 0 1.717-.077 3.02-.23 3.91-.123.859-.46 1.825-1.012 2.898a7.787 7.787 0 0 1-2.162 2.714c-.89.736-2.177 1.365-3.864 1.886-1.656.49-3.603.736-5.842.736-4.815 0-8.449-1.319-10.902-3.956-2.453-2.668-3.68-6.961-3.68-12.88 0-5.95 1.15-10.227 3.45-12.834 2.3-2.637 5.796-3.956 10.488-3.956 3.22 0 6.01.245 8.372.736 2.392.46 3.588 1.012 3.588 1.656 0 .797-.307 2.193-.92 4.186-.583 1.993-1.12 2.99-1.61 2.99-.153 0-.613-.077-1.38-.23-2.085-.43-3.987-.644-5.704-.644-1.717 0-2.821.43-3.312 1.288-.49.828-.736 2.055-.736 3.68.123-.153.322-.337.598-.552Zm1.012 4.14c-.89 0-1.334 1.656-1.334 4.968 0 3.281.445 4.922 1.334 4.922.95 0 1.426-1.64 1.426-4.922 0-3.312-.475-4.968-1.426-4.968Z" fill="#D41443"/></svg>